<?xml version="1.0" encoding="UTF-8"?>
<svg id="Layer_1" data-name="Layer 1" xmlns="http://www.w3.org/2000/svg" viewBox="0 0 1080 1080">
  <defs>
    <style>
      .cls-1 { fill: #fbd309; stroke-width: 0px; }
    </style>
  </defs>
  <path class="cls-1" d="m301.89,198.35c127.12.02,254.24.04,381.36.06,16.31-.21,48.08,1.94,70.35,24.1,19.84,19.74,24.46,45.53,24.46,71.34.02,90.75.17,181.5-.17,272.24-.23,61.25-33.33,93.78-94.43,93.81-53.59.02-107.18,0-160.77,0h-24.36v-176.61h96.41c0,27.22,0,54.44,0,81.66.04.89.37,6.77,5.43,10.86,4.78,3.87,10.21,3.26,11.15,3.14,22.15.11,44.3.23,66.45.34.78.07,5.99.48,10.16-3.48,3.85-3.66,4-8.36,4.01-9.22.21-97.7.42-195.41.63-293.11-25.72-.04-51.43-.08-77.15-.12-1.87.15-8.42.9-13.91,6.29-4.43,4.35-5.76,9.34-6.18,11.36-.19,32.45-.38,64.91-.56,97.36h-97.38c.18-31.42.36-62.83.54-94.25-.34-2.1-1.64-8.46-7.21-13.88-5.74-5.59-12.38-6.63-14.46-6.87-25.85-.04-51.71-.08-77.56-.12,0,10.85,0,19.85,0,28.85-.03,160.77-.23,321.55.17,482.32.04,15.58-3.74,26.4-17.16,35.86-26.57,18.74-51.68,39.54-79.8,61.37V198.35Z"/>
</svg>
